2200 0 1 0           
12 Cubit 14.0.5 17 ACIS 22.0.2 Linux 24 Thu Dec 20 17:57:51 2018 
1 9.9999999999999995e-07 1e-10 
body $1 -1 -1 $-1 $2 $-1 $-1 T -164575.01348730404 -51149.713487304027 -1489.6634873040291 172056.01348730404 215718.00899153607 672.10061746787119 #
integer_attrib-name_attrib-gen-attrib $-1 -1 $-1 $-1 $0 2 1 1 1 1 1 1 1 1 1 1 1 1 1 0 1 1 1 @8 CUBIT_ID 1 #
lump $3 -1 -1 $-1 $-1 $4 $0 T -164575.01348730404 -51149.713487304027 -1489.6634873040291 172056.01348730404 215718.00899153607 672.10061746787119 #
integer_attrib-name_attrib-gen-attrib $-1 -1 $-1 $-1 $2 2 1 1 1 1 1 1 1 1 1 1 1 1 1 0 1 1 1 @8 CUBIT_ID 1 #
shell $-1 -1 -1 $-1 $-1 $-1 $5 $-1 $2 T -164575.01348730404 -51149.713487304027 -1489.6634873040291 172056.01348730404 215718.00899153607 672.10061746787119 #
face $6 -1 -1 $-1 $-1 $7 $4 $-1 $8 forward double out T -164575.01348730404 -51149.713487304027 -1489.6634873040291 172056.01348730404 215718.00899153607 672.10061746787119 T 0 1 0 1 #
integer_attrib-name_attrib-gen-attrib $-1 -1 $-1 $-1 $5 2 1 1 1 1 1 1 1 1 1 1 1 1 1 0 1 1 1 @8 CUBIT_ID 1 #
loop $-1 -1 -1 $-1 $-1 $9 $5 T -164575.01348730404 -51149.713487304027 -1489.6634873040291 172056.01348730404 215718.00899153607 672.10061746787119 unknown #
spline-surface $-1 -1 -1 $-1 forward { netsur 4 
	0 
	intcurve forward { exactcur full nubs 3 open 3 
	0 3 133433.80022868022 1 266867.90787125414 3 
	-164575 215718 -110.676 
	-164575 171240.04938223527 -94.314400374565651 
	-164575 82284.045675368368 -61.591163428727356 
	-164575 -6671.75061784434 -256.4556463193133 
	-164575 -51149.699999999997 -353.88799999999998 
	0 
	null_surface 
	null_surface 
	nullbs 
	nullbs 
	-1 
	-1 
	I I 
	0 
	0 
	0 
	
	-1 
	none F F 1 F 0 } F 0 F 266867.90787125414 
	0.33333097381006105 
	intcurve forward { exactcur full nubs 3 open 3 
	0 3 133434.14171857323 1 266868.12979137572 3 
	-52364.599999999999 215718 -119.343 
	-52364.599999999999 171240.08780381791 19.259078221716649 
	-52364.599999999991 82284.31462655522 296.46307506864139 
	-52364.599999999991 -6671.7121962307465 118.37465751220242 
	-52364.599999999999 -51149.699999999997 29.330500000000001 
	0 
	null_surface 
	null_surface 
	nullbs 
	nullbs 
	-1 
	-1 
	I I 
	0 
	0 
	0 
	
	-1 
	none F F 1 F 0 } F 0 F 266868.12979137572 
	0.66666128489373266 
	intcurve forward { exactcur full nubs 3 open 3 
	0 3 133434.08401401626 1 266868.21298068983 3 
	59845.800000000003 215718 -75.851500000000001 
	59845.800000000003 171240.07125395085 18.260631545053442 
	59845.799999999996 82284.198777666956 206.48492634063069 
	59845.800000000003 -6671.728746046032 366.59363312369828 
	59845.800000000003 -51149.699999999997 446.64800000000002 
	0 
	null_surface 
	null_surface 
	nullbs 
	nullbs 
	-1 
	-1 
	I I 
	0 
	0 
	0 
	
	-1 
	none F F 1 F 0 } F 2.5849987816041972e-13 F 266868.21298068983 
	1 
	intcurve forward { exactcur full nubs 3 open 3 
	0 3 133433.88486543461 1 266879.22355878481 3 
	172056 215718 408.05399999999997 
	172056 171239.12063676026 490.93179274657086 
	172056 82277.543888864282 656.69449238449749 
	172056 -6672.6795256591831 -774.18136593087343 
	172056 -51149.699999999997 -1489.6500000000001 
	0 
	null_surface 
	null_surface 
	nullbs 
	nullbs 
	-1 
	-1 
	I I 
	0 
	0 
	0 
	
	-1 
	none F F 1 F 0 } F 0 F 266879.22355878481 
	3 
	0 
	intcurve forward { exactcur full nubs 3 open 4 
	0 3 112210.40033471446 1 224420.8087631244 1 336632.05217737827 3 
	-164575 215718 -110.676 
	-127171.55561331318 215718 -108.414451643142 
	-52364.664142042617 215717.99999999994 -103.89135476630133 
	59846.353782925136 215718.00000000006 -189.81680072499395 
	134652.69181919395 215718 208.76323877113717 
	172056 215718 408.05399999999997 
	0 
	null_surface 
	null_surface 
	nullbs 
	nullbs 
	-1 
	-1 
	I I 
	0 
	0 
	0 
	
	-1 
	none F F 1 F 0 } F 0 F 336632.05217737827 
	0.49999754040571837 
	intcurve forward { exactcur full nubs 3 open 4 
	0 3 112210.80405305178 1 224421.20531308584 1 336631.42035764956 3 
	-164575 82284.199999999997 -118.488 
	-127171.56944354399 82284.199999999997 8.077779486205884 
	-52364.842594358153 82284.199999999983 261.20888413683741 
	59845.768456727994 82284.199999999997 169.49130816681475 
	134652.6101761754 82284.199999999997 228.20511896174796 
	172056 82284.199999999997 257.56200000000001 
	0 
	null_surface 
	null_surface 
	nullbs 
	nullbs 
	-1 
	-1 
	I I 
	0 
	0 
	0 
	
	-1 
	none F F 1 F 0 } F 0 F 336631.42035764956 
	1 
	intcurve forward { exactcur full nubs 3 open 4 
	0 3 112211.05437780514 1 224422.2303900714 1 336649.13551528996 3 
	-164575 -51149.699999999997 -353.88799999999998 
	-127171.87642275073 -51149.699999999997 -281.47200978405363 
	-52365.588724040193 -51149.699999999997 -136.63995085472592 
	59855.281960991888 -51149.699999999983 1076.4892927782312 
	134654.01330061827 -51149.69999999999 -634.23027208093367 
	172056 -51149.699999999997 -1489.6500000000001 
	0 
	null_surface 
	null_surface 
	nullbs 
	nullbs 
	-1 
	-1 
	I I 
	0 
	0 
	0 
	
	-1 
	none F F 1 F 0 } F 0 F 336649.13551528996 
	0 0 
	0.33333249050090014 0 
	0.66666500504495196 0 
	1 0 
	0 0.49999942403360498 
	0.33333431541783859 0.50000028786833939 
	0.6666674342955049 0.49999991577742287 
	1 0.49997854117723578 
	0 1 
	0.33331751827032013 1 
	0.6666353978499332 1 
	1 1 
	@8 null_law @8 null_law @8 null_law @8 null_law full nubs 3 3 open open none none 3 4 
	0 3 0.49999754040571837 2 1 3 
	0 3 0.33333097381006105 2 0.66666128489373266 2 1 3 
	-164575 215718 -110.676 
	-164575 171239.96560250258 -94.31436955546485 
	-164575 126761.93120567396 -77.952953454843495 
	-164575 37806.031203480103 -159.02344534619303 
	-164575 -6671.8343979255733 -256.45582984599611 
	-164575 -51149.699999999997 -353.88799999999998 
	-127171.6204755842 215718 -108.41445556495094 
	-127171.69334328246 171240.00402391428 -44.293574703480459 
	-127171.84702293845 126761.93120566364 36.919873209270634 
	-127171.39392671772 37806.03120349042 -20.764943366348632 
	-127172.14640206215 -6671.795976141022 -159.6656696137249 
	-127171.62043814315 -51149.699999999997 -281.47151417360544 
	-89768.240951737651 215718 -106.15285753959586 
	-89768.18191400962 171239.95466667524 14.824775418271175 
	-89767.853994488163 126761.93120570104 151.79552996406602 
	-89768.627914097888 37806.031203452963 117.49115728948978 
	-89767.407910115915 -6671.8453338769123 -53.771535318794491 
	-89768.240867453685 -51149.699999999997 -209.05275659713678 
	-14961.033413928497 215718 -132.53311623585202 
	-14961.092451539167 171239.97653833151 23.694133815604445 
	-14961.420370408625 126761.93120567348 163.92704317733853 
	-14960.64645233762 37806.031203480568 297.34656628229982 
	-14961.866453893977 -6671.8234620192607 290.52001879240925 
	-14961.033498212309 -51149.699999999997 267.71328264515705 
	22442.794596300075 215718.00000000006 -161.17415848996109 
	22442.758163002218 171240.4492248912 -54.268862303808604 
	22442.681398489636 126761.93117858763 61.191986410649683 
	22442.907797257722 37806.031230566681 338.9368905370153 
	22442.531577513655 -6671.3507842659938 501.24129360065001 
	22442.794409579605 -51149.699999999997 672.08713016384218 
	97249.74841935774 215718 9.4733096701149861 
	97249.784853574165 171239.48196787707 90.792401136629422 
	97249.861620022115 126761.93123271097 163.55565758106263 
	97249.635215546004 37806.031176442826 234.1411483283517 
	97250.011444775417 -6672.3180237344195 231.94295819308934 
	97249.748606082867 -51149.699999999983 221.20318599799208 
	134652.87420700162 215718 208.76421056231814 
	134652.75612892964 171240.91638017158 304.71814155990648 
	134652.10032240243 126761.9312320068 368.69902531043374 
	134653.64809752992 37806.031177147044 87.71024483585802 
	134651.2085269228 -6670.8837788028486 -257.19052475530771 
	134652.87438012223 -51149.69999999999 -634.20422386406585 
	172056 215718 408.05399999999997 
	172056 171239.96567291295 490.93021818506821 
	172056 126761.93128614739 573.82160235429615 
	172056 37806.031123005923 -58.700713850839975 
	172056 -6671.8344683443793 -774.16777212453712 
	172056 -51149.699999999997 -1489.6500000000001 
	0.0089915360193138869 
	0 
	3 0 0.49999754040571837 1 
	0 
	0 
	4 0 0.33333097381006105 0.66666128489373266 1 
	0 
	} I I I I #
coedge $-1 -1 -1 $-1 $10 $11 $-1 $12 forward $7 $13 #
coedge $-1 -1 -1 $-1 $14 $9 $-1 $15 forward $7 $16 #
coedge $-1 -1 -1 $-1 $9 $14 $-1 $17 reversed $7 $18 #
edge $19 -1 -1 $-1 $20 0 $21 1 $9 $22 forward @7 unknown T -164575.00899153601 -51149.708991536019 -353.8969915360193 -164574.99100846399 215718.00899153601 -77.943961918824186 #
pcurve $-1 -1 -1 $-1 0 forward { exppc nubs 1 open 2 
	0 1 1 1 
	0 0 
	1 0 
	0 
	-1 
	spline forward { ref 0 } I I I I 
	} 0 0 #
coedge $-1 -1 -1 $-1 $11 $10 $-1 $23 reversed $7 $24 #
edge $25 -1 -1 $-1 $21 0 $26 1 $10 $27 forward @7 unknown T -164575.01348730404 -51149.713487304027 -1489.6634873040291 172056.01348730404 -51149.686512695953 672.10061746787119 #
pcurve $-1 -1 -1 $-1 0 forward { exppc nubs 1 open 2 
	0 1 1 1 
	1 0 
	1 1 
	0 
	-1 
	spline forward { ref 0 } I I I I 
	} 0 0 #
edge $28 -1 -1 $-1 $20 0 $29 1 $11 $30 forward @7 unknown T -164575.00899153601 215717.99100846399 -161.18315002598041 172056.00899153601 215718.00899153607 408.0629915360193 #
pcurve $-1 -1 -1 $-1 0 reversed { exppc nubs 1 open 2 
	0 1 1 1 
	0 0 
	0 1 
	0 
	-1 
	spline forward { ref 0 } I I I I 
	} 0 0 #
integer_attrib-name_attrib-gen-attrib $-1 -1 $-1 $-1 $12 2 1 1 1 1 1 1 1 1 1 1 1 1 1 0 1 1 1 @8 CUBIT_ID 8 #
vertex $31 -1 -1 $-1 $12 $32 #
vertex $33 -1 -1 $-1 $12 $34 #
intcurve-curve $-1 -1 -1 $-1 forward { parcur summary 3 3 0 0.49999754040571837 1 0.0089915360193138869 OPEN 
	spline forward { ref 0 } I I I I 
	null_surface 
	nubs 1 open 2 
	0 1 1 1 
	0 0 
	1 0 
	
	nullbs 
	-1 
	-1 
	I I 
	0 
	0 
	0 
	
	-1 
	none F surf1 } I I #
edge $35 -1 -1 $-1 $29 0 $26 1 $14 $36 forward @7 unknown T 172055.99100846399 -51149.708991536019 -1489.6589915360194 172056.00899153601 215718.00899153601 573.83059389031541 #
pcurve $-1 -1 -1 $-1 0 reversed { exppc nubs 1 open 2 
	0 1 1 1 
	0 1 
	1 1 
	0 
	-1 
	spline forward { ref 0 } I I I I 
	} 0 0 #
integer_attrib-name_attrib-gen-attrib $-1 -1 $-1 $-1 $15 2 1 1 1 1 1 1 1 1 1 1 1 1 1 0 1 1 1 @8 CUBIT_ID 9 #
vertex $37 -1 -1 $-1 $23 $38 #
intcurve-curve $-1 -1 -1 $-1 forward { parcur summary 3 4 0 0.33333097381006105 0.66666128489373266 1 0.013487304028970831 OPEN 
	spline forward { ref 0 } I I I I 
	null_surface 
	nubs 1 open 2 
	0 1 1 1 
	1 0 
	1 1 
	
	nullbs 
	-1 
	-1 
	I I 
	0 
	0 
	0 
	
	-1 
	none F surf1 } I I #
integer_attrib-name_attrib-gen-attrib $-1 -1 $-1 $-1 $17 2 1 1 1 1 1 1 1 1 1 1 1 1 1 0 1 1 1 @8 CUBIT_ID 11 #
vertex $39 -1 -1 $-1 $23 $40 #
intcurve-curve $-1 -1 -1 $-1 forward { parcur summary 3 4 0 0.33333097381006105 0.66666128489373266 1 0.0089915360193138869 OPEN 
	spline forward { ref 0 } I I I I 
	null_surface 
	nubs 1 open 2 
	0 1 1 1 
	0 0 
	0 1 
	
	nullbs 
	-1 
	-1 
	I I 
	0 
	0 
	0 
	
	-1 
	none F surf1 } I I #
integer_attrib-name_attrib-gen-attrib $-1 -1 $-1 $-1 $20 2 1 1 1 1 1 1 1 1 1 1 1 1 1 0 1 1 1 @8 CUBIT_ID 25 #
point $-1 -1 -1 $-1 -164575 215718 -110.676 #
integer_attrib-name_attrib-gen-attrib $-1 -1 $-1 $-1 $21 2 1 1 1 1 1 1 1 1 1 1 1 1 1 0 1 1 1 @8 CUBIT_ID 26 #
point $-1 -1 -1 $-1 -164575 -51149.699999999997 -353.88799999999998 #
integer_attrib-name_attrib-gen-attrib $-1 -1 $-1 $-1 $23 2 1 1 1 1 1 1 1 1 1 1 1 1 1 0 1 1 1 @8 CUBIT_ID 10 #
intcurve-curve $-1 -1 -1 $-1 forward { parcur summary 3 3 0 0.49999754040571837 1 0.0089915360193138869 OPEN 
	spline forward { ref 0 } I I I I 
	null_surface 
	nubs 1 open 2 
	0 1 1 1 
	0 1 
	1 1 
	
	nullbs 
	-1 
	-1 
	I I 
	0 
	0 
	0 
	
	-1 
	none F surf1 } I I #
integer_attrib-name_attrib-gen-attrib $-1 -1 $-1 $-1 $26 2 1 1 1 1 1 1 1 1 1 1 1 1 1 0 1 1 1 @8 CUBIT_ID 27 #
point $-1 -1 -1 $-1 172056 -51149.699999999997 -1489.6500000000001 #
integer_attrib-name_attrib-gen-attrib $-1 -1 $-1 $-1 $29 2 1 1 1 1 1 1 1 1 1 1 1 1 1 0 1 1 1 @8 CUBIT_ID 28 #
point $-1 -1 -1 $-1 172056 215718 408.05399999999997 #
End-of-ACIS-data 